<mxfile host="app.diagrams.net" modified="2020-06-07T09:19:48.198Z" agent="5.0 (X11)" etag="w8c8JJcs8NrdDR6TM0Ak" version="13.1.14" type="github">
  <diagram id="umUKt08_b0THqYxB4QMx" name="Page-1">
    <mxGraphModel dx="673" dy="2752" grid="1" gridSize="10" guides="1" tooltips="1" connect="1" arrows="1" fold="1" page="1" pageScale="1" pageWidth="827" pageHeight="1169" math="0" shadow="0">
      <root>
        <mxCell id="0" />
        <mxCell id="1" parent="0" />
        <mxCell id="4Of8lciSdiPJmf7sZ0PA-31" value="" style="endArrow=block;endFill=1;endSize=6;html=1;strokeWidth=5;entryX=0.25;entryY=1;entryDx=0;entryDy=0;" parent="1" target="4Of8lciSdiPJmf7sZ0PA-46" edge="1">
          <mxGeometry width="100" relative="1" as="geometry">
            <mxPoint x="3000" y="1240" as="sourcePoint" />
            <mxPoint x="2310" y="880" as="targetPoint" />
            <Array as="points">
              <mxPoint x="2285" y="1240" />
            </Array>
          </mxGeometry>
        </mxCell>
        <mxCell id="4Of8lciSdiPJmf7sZ0PA-36" value="" style="group" parent="1" vertex="1" connectable="0">
          <mxGeometry x="1654" y="480" width="360" height="205" as="geometry" />
        </mxCell>
        <mxCell id="4Of8lciSdiPJmf7sZ0PA-32" value="&lt;div style=&quot;font-size: 30px&quot;&gt;&lt;font style=&quot;font-size: 30px&quot;&gt;Узнать о возможности&lt;/font&gt;&lt;/div&gt;&lt;div style=&quot;font-size: 30px&quot;&gt;&lt;font style=&quot;font-size: 30px&quot;&gt; записи&lt;/font&gt;&lt;/div&gt;" style="html=1;strokeWidth=5;" parent="4Of8lciSdiPJmf7sZ0PA-36" vertex="1">
          <mxGeometry width="360" height="204.99999999999997" as="geometry" />
        </mxCell>
        <mxCell id="4Of8lciSdiPJmf7sZ0PA-33" value="&lt;br&gt;&lt;font style=&quot;font-size: 30px&quot;&gt;А1&lt;/font&gt;" style="text;html=1;strokeColor=none;fillColor=none;align=center;verticalAlign=middle;whiteSpace=wrap;rounded=0;" parent="4Of8lciSdiPJmf7sZ0PA-36" vertex="1">
          <mxGeometry x="310" y="153.75" width="50" height="51.24999999999999" as="geometry" />
        </mxCell>
        <mxCell id="4Of8lciSdiPJmf7sZ0PA-37" value="&lt;font style=&quot;font-size: 30px&quot;&gt;&lt;font style=&quot;font-size: 30px&quot;&gt;Дата и время&lt;/font&gt;&lt;br&gt;&lt;/font&gt;" style="endArrow=block;endFill=1;endSize=6;html=1;strokeWidth=5;entryX=0.001;entryY=0.193;entryDx=0;entryDy=0;entryPerimeter=0;" parent="1" target="4Of8lciSdiPJmf7sZ0PA-32" edge="1">
          <mxGeometry width="100" relative="1" as="geometry">
            <mxPoint x="1134" y="520.28" as="sourcePoint" />
            <mxPoint x="1630" y="520" as="targetPoint" />
          </mxGeometry>
        </mxCell>
        <mxCell id="4Of8lciSdiPJmf7sZ0PA-38" value="&lt;font style=&quot;font-size: 30px&quot;&gt;&lt;font style=&quot;font-size: 30px&quot;&gt;Нромер телефона&lt;/font&gt;&lt;br&gt;&lt;/font&gt;" style="endArrow=block;endFill=1;endSize=6;html=1;strokeWidth=5;entryX=0;entryY=0.5;entryDx=0;entryDy=0;" parent="1" target="4Of8lciSdiPJmf7sZ0PA-32" edge="1">
          <mxGeometry width="100" relative="1" as="geometry">
            <mxPoint x="1134" y="581.79" as="sourcePoint" />
            <mxPoint x="1630" y="582" as="targetPoint" />
          </mxGeometry>
        </mxCell>
        <mxCell id="4Of8lciSdiPJmf7sZ0PA-39" value="&lt;font style=&quot;font-size: 30px&quot;&gt;&lt;font style=&quot;font-size: 30px&quot;&gt;ФИО ребенка и родителя&lt;/font&gt;&lt;br&gt;&lt;/font&gt;" style="endArrow=block;endFill=1;endSize=6;html=1;strokeWidth=5;entryX=-0.001;entryY=0.849;entryDx=0;entryDy=0;entryPerimeter=0;" parent="1" target="4Of8lciSdiPJmf7sZ0PA-32" edge="1">
          <mxGeometry width="100" relative="1" as="geometry">
            <mxPoint x="1140" y="656.72" as="sourcePoint" />
            <mxPoint x="1620" y="650" as="targetPoint" />
          </mxGeometry>
        </mxCell>
        <mxCell id="4Of8lciSdiPJmf7sZ0PA-41" value="&lt;font style=&quot;font-size: 30px&quot;&gt;&lt;font style=&quot;font-size: 30px&quot;&gt;Доступ к сотовой связи&lt;/font&gt;&lt;br&gt;&lt;/font&gt;" style="endArrow=block;endFill=1;endSize=6;html=1;strokeWidth=5;entryX=0.52;entryY=0.008;entryDx=0;entryDy=0;entryPerimeter=0;" parent="1" target="4Of8lciSdiPJmf7sZ0PA-32" edge="1">
          <mxGeometry width="100" relative="1" as="geometry">
            <mxPoint x="1840" y="200" as="sourcePoint" />
            <mxPoint x="1840" y="460" as="targetPoint" />
          </mxGeometry>
        </mxCell>
        <mxCell id="4Of8lciSdiPJmf7sZ0PA-43" value="&lt;font style=&quot;font-size: 20px&quot;&gt;&lt;br&gt;&lt;/font&gt;" style="endArrow=block;endFill=1;endSize=6;html=1;strokeWidth=5;entryX=0.561;entryY=-0.018;entryDx=0;entryDy=0;entryPerimeter=0;" parent="1" target="4Of8lciSdiPJmf7sZ0PA-46" edge="1">
          <mxGeometry x="-0.2222" y="-80" width="100" relative="1" as="geometry">
            <mxPoint x="1840" y="240" as="sourcePoint" />
            <mxPoint x="2360" y="470" as="targetPoint" />
            <Array as="points">
              <mxPoint x="1920" y="240" />
              <mxPoint x="2441" y="240" />
            </Array>
            <mxPoint as="offset" />
          </mxGeometry>
        </mxCell>
        <mxCell id="4Of8lciSdiPJmf7sZ0PA-44" value="&lt;span style=&quot;font-size: 30px&quot;&gt;Желание Клиента &lt;br&gt;записаться&lt;br&gt;&lt;/span&gt;" style="text;html=1;strokeColor=none;fillColor=none;align=center;verticalAlign=middle;whiteSpace=wrap;rounded=0;" parent="1" vertex="1">
          <mxGeometry x="2014" y="340" width="200" height="100" as="geometry" />
        </mxCell>
        <mxCell id="4Of8lciSdiPJmf7sZ0PA-49" value="Text" style="text;html=1;align=center;verticalAlign=middle;resizable=0;points=[];autosize=1;" parent="4Of8lciSdiPJmf7sZ0PA-44" vertex="1">
          <mxGeometry x="148" y="44" width="40" height="20" as="geometry" />
        </mxCell>
        <mxCell id="4Of8lciSdiPJmf7sZ0PA-45" value="" style="group" parent="1" vertex="1" connectable="0">
          <mxGeometry x="2160" y="520" width="500" height="205" as="geometry" />
        </mxCell>
        <mxCell id="4Of8lciSdiPJmf7sZ0PA-46" value="&lt;font style=&quot;font-size: 30px&quot;&gt;Предоставление&lt;br&gt;Вариантов записи&lt;br&gt;&lt;/font&gt;" style="html=1;strokeWidth=5;" parent="4Of8lciSdiPJmf7sZ0PA-45" vertex="1">
          <mxGeometry width="500.00000000000006" height="204.99999999999997" as="geometry" />
        </mxCell>
        <mxCell id="4Of8lciSdiPJmf7sZ0PA-47" value="&lt;br&gt;&lt;font style=&quot;font-size: 30px&quot;&gt;А2&lt;/font&gt;" style="text;html=1;strokeColor=none;fillColor=none;align=center;verticalAlign=middle;whiteSpace=wrap;rounded=0;" parent="4Of8lciSdiPJmf7sZ0PA-45" vertex="1">
          <mxGeometry x="430.5555555555556" y="153.75" width="69.44444444444444" height="51.24999999999999" as="geometry" />
        </mxCell>
        <mxCell id="4Of8lciSdiPJmf7sZ0PA-50" style="edgeStyle=orthogonalEdgeStyle;rounded=0;orthogonalLoop=1;jettySize=auto;html=1;entryX=0.001;entryY=0.576;entryDx=0;entryDy=0;entryPerimeter=0;strokeWidth=5;" parent="1" source="4Of8lciSdiPJmf7sZ0PA-32" target="4Of8lciSdiPJmf7sZ0PA-46" edge="1">
          <mxGeometry relative="1" as="geometry" />
        </mxCell>
        <mxCell id="4Of8lciSdiPJmf7sZ0PA-52" value="&lt;font style=&quot;font-size: 30px&quot;&gt;Клиент&lt;/font&gt;" style="endArrow=block;endFill=1;endSize=6;html=1;strokeWidth=5;entryX=0.518;entryY=0.997;entryDx=0;entryDy=0;entryPerimeter=0;" parent="1" target="4Of8lciSdiPJmf7sZ0PA-32" edge="1">
          <mxGeometry x="0.0917" width="100" relative="1" as="geometry">
            <mxPoint x="1840" y="1310" as="sourcePoint" />
            <mxPoint x="1839.9999999999998" y="690" as="targetPoint" />
            <mxPoint as="offset" />
          </mxGeometry>
        </mxCell>
        <mxCell id="4Of8lciSdiPJmf7sZ0PA-53" value="&lt;font style=&quot;font-size: 30px&quot;&gt;Администраор &lt;br&gt;&lt;/font&gt;" style="endArrow=block;endFill=1;endSize=6;html=1;strokeWidth=5;" parent="1" edge="1">
          <mxGeometry x="0.0435" width="100" relative="1" as="geometry">
            <mxPoint x="2600" y="1300" as="sourcePoint" />
            <mxPoint x="2600" y="725" as="targetPoint" />
            <mxPoint as="offset" />
          </mxGeometry>
        </mxCell>
        <mxCell id="4Of8lciSdiPJmf7sZ0PA-63" value="" style="group" parent="1" vertex="1" connectable="0">
          <mxGeometry x="2790" y="584" width="360" height="205" as="geometry" />
        </mxCell>
        <mxCell id="4Of8lciSdiPJmf7sZ0PA-64" value="&lt;div&gt;&lt;font style=&quot;font-size: 30px&quot;&gt;Запись&lt;br&gt;&lt;/font&gt;&lt;/div&gt;" style="html=1;strokeWidth=5;" parent="4Of8lciSdiPJmf7sZ0PA-63" vertex="1">
          <mxGeometry width="360" height="204.99999999999997" as="geometry" />
        </mxCell>
        <mxCell id="4Of8lciSdiPJmf7sZ0PA-65" value="&lt;br&gt;&lt;font style=&quot;font-size: 30px&quot;&gt;А3&lt;/font&gt;" style="text;html=1;strokeColor=none;fillColor=none;align=center;verticalAlign=middle;whiteSpace=wrap;rounded=0;" parent="4Of8lciSdiPJmf7sZ0PA-63" vertex="1">
          <mxGeometry x="310" y="153.75" width="50" height="51.24999999999999" as="geometry" />
        </mxCell>
        <mxCell id="4Of8lciSdiPJmf7sZ0PA-66" style="edgeStyle=orthogonalEdgeStyle;rounded=0;orthogonalLoop=1;jettySize=auto;html=1;entryX=0;entryY=0.5;entryDx=0;entryDy=0;strokeWidth=5;" parent="1" source="4Of8lciSdiPJmf7sZ0PA-46" target="4Of8lciSdiPJmf7sZ0PA-64" edge="1">
          <mxGeometry relative="1" as="geometry" />
        </mxCell>
        <mxCell id="4Of8lciSdiPJmf7sZ0PA-67" value="&lt;font style=&quot;font-size: 30px&quot;&gt;Телефон &lt;br&gt;&lt;/font&gt;" style="endArrow=block;endFill=1;endSize=6;html=1;strokeWidth=5;" parent="1" edge="1">
          <mxGeometry x="0.2174" y="-10" width="100" relative="1" as="geometry">
            <mxPoint x="2420" y="1300" as="sourcePoint" />
            <mxPoint x="2420" y="725.0000000000002" as="targetPoint" />
            <mxPoint as="offset" />
          </mxGeometry>
        </mxCell>
        <mxCell id="4Of8lciSdiPJmf7sZ0PA-68" value="&lt;font style=&quot;font-size: 30px&quot;&gt;Эл. Журнал &lt;/font&gt;" style="endArrow=block;endFill=1;endSize=6;html=1;strokeWidth=5;" parent="1" edge="1">
          <mxGeometry x="-0.5303" width="100" relative="1" as="geometry">
            <mxPoint x="3000" y="1300" as="sourcePoint" />
            <mxPoint x="3000" y="789" as="targetPoint" />
            <mxPoint as="offset" />
          </mxGeometry>
        </mxCell>
        <mxCell id="4Of8lciSdiPJmf7sZ0PA-70" value="&lt;font style=&quot;font-size: 30px&quot;&gt;&lt;div&gt;Закон РФ&lt;/div&gt;&lt;div&gt;&quot;О персональных данных&quot;&lt;/div&gt;&lt;div&gt;от 27.07.2006 N 152-ФЗ&lt;/div&gt;&lt;/font&gt;" style="endArrow=block;endFill=1;endSize=6;html=1;strokeWidth=5;entryX=0.5;entryY=0;entryDx=0;entryDy=0;" parent="1" target="4Of8lciSdiPJmf7sZ0PA-64" edge="1">
          <mxGeometry x="-0.3676" width="100" relative="1" as="geometry">
            <mxPoint x="2969.17" y="200.23999999999998" as="sourcePoint" />
            <mxPoint x="2969.6099999999997" y="579.76" as="targetPoint" />
            <mxPoint as="offset" />
          </mxGeometry>
        </mxCell>
        <mxCell id="4Of8lciSdiPJmf7sZ0PA-71" value="" style="endArrow=block;endFill=1;endSize=6;html=1;strokeWidth=5;entryX=0.777;entryY=1;entryDx=0;entryDy=0;entryPerimeter=0;" parent="1" target="4Of8lciSdiPJmf7sZ0PA-64" edge="1">
          <mxGeometry x="0.0917" width="100" relative="1" as="geometry">
            <mxPoint x="1840" y="1110" as="sourcePoint" />
            <mxPoint x="3090" y="830" as="targetPoint" />
            <mxPoint as="offset" />
            <Array as="points">
              <mxPoint x="3070" y="1110" />
            </Array>
          </mxGeometry>
        </mxCell>
        <mxCell id="4Of8lciSdiPJmf7sZ0PA-76" value="" style="endArrow=block;endFill=1;endSize=6;html=1;strokeWidth=5;entryX=0.442;entryY=1;entryDx=0;entryDy=0;entryPerimeter=0;" parent="1" target="4Of8lciSdiPJmf7sZ0PA-64" edge="1">
          <mxGeometry width="100" relative="1" as="geometry">
            <mxPoint x="2600" y="950" as="sourcePoint" />
            <mxPoint x="2910" y="800" as="targetPoint" />
            <Array as="points">
              <mxPoint x="2950" y="950" />
            </Array>
          </mxGeometry>
        </mxCell>
        <mxCell id="4Of8lciSdiPJmf7sZ0PA-80" value="" style="endArrow=block;endFill=1;endSize=6;html=1;strokeWidth=5;entryX=0.25;entryY=1;entryDx=0;entryDy=0;" parent="1" target="4Of8lciSdiPJmf7sZ0PA-64" edge="1">
          <mxGeometry width="100" relative="1" as="geometry">
            <mxPoint x="2420" y="880" as="sourcePoint" />
            <mxPoint x="2759.12" y="718.9999999999995" as="targetPoint" />
            <Array as="points">
              <mxPoint x="2880" y="880" />
            </Array>
          </mxGeometry>
        </mxCell>
        <mxCell id="4Of8lciSdiPJmf7sZ0PA-81" style="edgeStyle=orthogonalEdgeStyle;rounded=0;orthogonalLoop=1;jettySize=auto;html=1;strokeWidth=5;" parent="1" source="4Of8lciSdiPJmf7sZ0PA-64" edge="1">
          <mxGeometry relative="1" as="geometry">
            <mxPoint x="3550" y="686" as="targetPoint" />
          </mxGeometry>
        </mxCell>
        <mxCell id="4Of8lciSdiPJmf7sZ0PA-83" value="&lt;font style=&quot;font-size: 30px&quot;&gt;Записанный клиент&lt;br&gt;&lt;/font&gt;" style="edgeLabel;html=1;align=center;verticalAlign=middle;resizable=0;points=[];" parent="4Of8lciSdiPJmf7sZ0PA-81" vertex="1" connectable="0">
          <mxGeometry x="0.0706" relative="1" as="geometry">
            <mxPoint x="-29.5" y="-0.9999999999999982" as="offset" />
          </mxGeometry>
        </mxCell>
        <mxCell id="4Of8lciSdiPJmf7sZ0PA-84" value="&lt;font style=&quot;font-size: 30px&quot;&gt;Окончательный выбор&lt;/font&gt;" style="text;html=1;strokeColor=none;fillColor=none;align=center;verticalAlign=middle;whiteSpace=wrap;rounded=0;" parent="1" vertex="1">
          <mxGeometry x="2710" y="465" width="200" height="70" as="geometry" />
        </mxCell>
        <mxCell id="lKUdQG8kVtFQ2dFMCkj8-2" value="" style="endArrow=block;endFill=1;endSize=6;html=1;strokeWidth=5;" edge="1" parent="1">
          <mxGeometry x="0.0917" width="100" relative="1" as="geometry">
            <mxPoint x="2600" y="1170" as="sourcePoint" />
            <mxPoint x="1920" y="687" as="targetPoint" />
            <mxPoint as="offset" />
            <Array as="points">
              <mxPoint x="1920" y="1170" />
            </Array>
          </mxGeometry>
        </mxCell>
      </root>
    </mxGraphModel>
  </diagram>
</mxfile>
